<?xml version="1.0" encoding="UTF-8"?>
<!DOCTYPE svg PUBLIC "-//W3C//DTD SVG 1.1//EN" "http://www.w3.org/Graphics/SVG/1.1/DTD/svg11.dtd">
<svg xmlns="http://www.w3.org/2000/svg" version="1.1" width="512px" height="512px" style="shape-rendering:geometricPrecision; text-rendering:geometricPrecision; image-rendering:optimizeQuality; fill-rule:evenodd; clip-rule:evenodd" xmlns:xlink="http://www.w3.org/1999/xlink">
<g><path style="opacity:0.96" fill="#000000" d="M 250.5,32.5 C 290.982,32.6478 321.482,49.9811 342,84.5C 343.411,86.6504 344.245,88.9837 344.5,91.5C 383.998,91.4802 409.831,110.147 422,147.5C 428.153,186.029 413.986,214.195 379.5,232C 362.638,237.654 345.305,239.82 327.5,238.5C 327.333,256.503 327.5,274.503 328,292.5C 344,308.5 360,324.5 376,340.5C 384.899,333.301 394.066,326.468 403.5,320C 406.964,319.183 410.298,319.517 413.5,321C 420.577,326.621 427.743,332.121 435,337.5C 435.333,332.833 435.667,328.167 436,323.5C 436.5,321.667 437.667,320.5 439.5,320C 448.833,319.333 458.167,319.333 467.5,320C 468.333,320.833 469.167,321.667 470,322.5C 471.134,336.752 471.968,351.085 472.5,365.5C 476.859,369.026 481.359,372.359 486,375.5C 488.109,379.781 487.942,383.948 485.5,388C 480.964,389.379 476.297,389.879 471.5,389.5C 471.984,418.588 471.484,447.588 470,476.5C 469.167,477.333 468.333,478.167 467.5,479C 427.5,479.667 387.5,479.667 347.5,479C 346.667,478.167 345.833,477.333 345,476.5C 343.516,447.588 343.016,418.588 343.5,389.5C 338.703,389.879 334.036,389.379 329.5,388C 326.833,383.667 326.833,379.333 329.5,375C 340.385,367.064 351.052,358.898 361.5,350.5C 344.847,333.347 328.014,316.347 311,299.5C 310.5,279.169 310.333,258.836 310.5,238.5C 294.833,238.5 279.167,238.5 263.5,238.5C 263.5,265.5 263.5,292.5 263.5,319.5C 272.839,319.334 282.173,319.5 291.5,320C 296.667,322.5 300.5,326.333 303,331.5C 303.667,376.833 303.667,422.167 303,467.5C 300.5,472.667 296.667,476.5 291.5,479C 267.5,479.667 243.5,479.667 219.5,479C 214.333,476.5 210.5,472.667 208,467.5C 207.333,422.167 207.333,376.833 208,331.5C 210.5,326.333 214.333,322.5 219.5,320C 228.827,319.5 238.161,319.334 247.5,319.5C 247.5,292.5 247.5,265.5 247.5,238.5C 231.833,238.5 216.167,238.5 200.5,238.5C 200.965,259.234 200.465,279.9 199,300.5C 186.167,313.333 173.333,326.167 160.5,339C 166.833,339.333 173.167,339.667 179.5,340C 181.333,340.5 182.5,341.667 183,343.5C 183.667,375.5 183.667,407.5 183,439.5C 182.5,441.333 181.333,442.5 179.5,443C 158.503,443.5 137.503,443.667 116.5,443.5C 116.5,449.833 116.5,456.167 116.5,462.5C 121.959,462.103 127.292,462.603 132.5,464C 135.428,467.257 136.262,471.091 135,475.5C 133.786,477.049 132.286,478.215 130.5,479C 115.167,479.667 99.8333,479.667 84.5,479C 82.714,478.215 81.214,477.049 80,475.5C 78.7382,471.091 79.5715,467.257 82.5,464C 88.0438,462.596 93.7104,462.096 99.5,462.5C 99.5,456.167 99.5,449.833 99.5,443.5C 78.1641,443.667 56.8307,443.5 35.5,443C 34.5838,442.626 33.7504,442.126 33,441.5C 31.3481,408.919 31.0148,376.252 32,343.5C 32.5,341.667 33.6667,340.5 35.5,340C 68.8333,339.667 102.167,339.333 135.5,339C 151.333,323.167 167.167,307.333 183,291.5C 183.5,273.836 183.667,256.17 183.5,238.5C 167.803,238.819 152.136,238.319 136.5,237C 111.951,231.451 96.1181,216.618 89,192.5C 83.0953,164.546 91.5953,142.046 114.5,125C 128.27,116.513 143.103,113.679 159,116.5C 161.502,99.5066 167.836,84.1733 178,70.5C 185.613,65.3884 190.779,67.2217 193.5,76C 189.489,83.8526 185.322,91.6859 181,99.5C 178.119,108.81 175.453,118.143 173,127.5C 170.9,130.467 168.066,132.3 164.5,133C 139.512,128.419 120.678,136.919 108,158.5C 99.7844,181.147 105.284,199.647 124.5,214C 131.552,218.347 139.219,220.68 147.5,221C 218.521,221.97 289.521,221.637 360.5,220C 393.042,210.746 408.209,189.246 406,155.5C 400.354,131.854 385.854,116.687 362.5,110C 354.543,108.891 346.543,108.224 338.5,108C 337.167,107.333 335.833,106.667 334.5,106C 329.376,96.9147 323.876,88.0814 318,79.5C 288.073,47.982 253.573,41.8153 214.5,61C 207.766,62.4354 204.1,59.7687 203.5,53C 203.408,50.1861 204.408,47.8527 206.5,46C 220.309,38.3388 234.976,33.8388 250.5,32.5 Z M 253.5,182.5 C 256.99,182.151 259.323,183.651 260.5,187C 257.167,193 253.833,193 250.5,187C 251.386,185.385 252.386,183.885 253.5,182.5 Z M 226.5,335.5 C 245.836,335.333 265.17,335.5 284.5,336C 285.667,336.5 286.5,337.333 287,338.5C 287.667,379.167 287.667,419.833 287,460.5C 286.5,461.667 285.667,462.5 284.5,463C 265.167,463.667 245.833,463.667 226.5,463C 225.333,462.5 224.5,461.667 224,460.5C 223.333,419.833 223.333,379.167 224,338.5C 224.698,337.309 225.531,336.309 226.5,335.5 Z M 451.5,335.5 C 452.5,335.5 453.5,335.5 454.5,335.5C 454.333,347.838 454.5,360.171 455,372.5C 457,374.5 457,376.5 455,378.5C 454.5,406.831 454.333,435.165 454.5,463.5C 423.167,463.5 391.833,463.5 360.5,463.5C 360.967,433.667 360.467,404 359,374.5C 375.026,362.307 391.192,350.307 407.5,338.5C 417.679,345.757 427.679,353.257 437.5,361C 440.702,362.483 444.036,362.817 447.5,362C 449.333,361.5 450.5,360.333 451,358.5C 451.5,350.841 451.666,343.174 451.5,335.5 Z M 47.5,355.5 C 87.5,355.5 127.5,355.5 167.5,355.5C 167.5,379.5 167.5,403.5 167.5,427.5C 127.5,427.5 87.5,427.5 47.5,427.5C 47.5,403.5 47.5,379.5 47.5,355.5 Z"/></g>
<g><path style="opacity:0.92" fill="#000000" d="M 250.5,94.5 C 280.069,93.6298 305.235,103.63 326,124.5C 329.632,129.745 329.132,134.578 324.5,139C 321.833,139.667 319.167,139.667 316.5,139C 298.853,120.555 277.186,111.222 251.5,111C 245.635,108.006 244.135,103.506 247,97.5C 248.145,96.3636 249.312,95.3636 250.5,94.5 Z"/></g>
<g><path style="opacity:0.876" fill="#000000" d="M 225.5,98.5 C 234.671,98.1754 238.171,102.509 236,111.5C 229.386,118.653 222.719,118.986 216,112.5C 215.21,109.366 215.543,106.366 217,103.5C 219.682,101.415 222.516,99.7483 225.5,98.5 Z"/></g>
<g><path style="opacity:0.893" fill="#000000" d="M 200.5,112.5 C 209.214,113.595 212.048,118.262 209,126.5C 204.533,129.965 200.367,133.798 196.5,138C 186.464,141.632 181.964,138.132 183,127.5C 184.458,125.04 186.291,122.873 188.5,121C 192.147,117.497 196.147,114.663 200.5,112.5 Z"/></g>
<g><path style="opacity:0.928" fill="#000000" d="M 255.5,117.5 C 262.872,118.118 270.205,119.285 277.5,121C 282.453,125.643 282.787,130.643 278.5,136C 276.863,136.601 275.197,137.101 273.5,137.5C 256.076,132.72 239.743,135.22 224.5,145C 220.5,148.333 216.5,151.667 212.5,155C 203.284,155.777 199.784,151.61 202,142.5C 216.557,126.969 234.391,118.636 255.5,117.5 Z"/></g>
<g><path style="opacity:0.882" fill="#000000" d="M 294.5,131.5 C 303.206,133.374 308.873,138.541 311.5,147C 310.602,154.125 306.602,156.792 299.5,155C 295.701,152.203 292.201,149.036 289,145.5C 286.143,138.892 287.977,134.225 294.5,131.5 Z"/></g>
<g><path style="opacity:0.928" fill="#000000" d="M 252.5,141.5 C 267.966,141.319 280.8,146.985 291,158.5C 292.144,168.362 287.977,172.195 278.5,170C 263.167,154.667 247.833,154.667 232.5,170C 223.571,172.415 219.404,168.915 220,159.5C 228.337,148.916 239.171,142.916 252.5,141.5 Z"/></g>
<g><path style="opacity:0.926" fill="#000000" d="M 250.5,165.5 C 266.343,164.573 275.343,171.906 277.5,187.5C 273.574,206.132 262.574,212.299 244.5,206C 231.828,195.638 230.495,183.971 240.5,171C 243.767,168.87 247.1,167.037 250.5,165.5 Z M 253.5,182.5 C 252.386,183.885 251.386,185.385 250.5,187C 253.833,193 257.167,193 260.5,187C 259.323,183.651 256.99,182.151 253.5,182.5 Z"/></g>
<g><path style="opacity:0.95" fill="#000000" d="M 243.5,343.5 C 251.507,343.334 259.507,343.5 267.5,344C 269.333,344.5 270.5,345.667 271,347.5C 271.667,350.167 271.667,352.833 271,355.5C 270.5,357.333 269.333,358.5 267.5,359C 259.5,359.667 251.5,359.667 243.5,359C 240.484,357.471 239.151,354.971 239.5,351.5C 239.282,347.934 240.616,345.268 243.5,343.5 Z"/></g>
<g><path style="opacity:0.892" fill="#000000" d="M 251.5,439.5 C 262.86,438.71 266.193,443.543 261.5,454C 250.964,457.997 246.464,454.497 248,443.5C 248.69,441.65 249.856,440.316 251.5,439.5 Z"/></g>
</svg>
